<?xml version="1.0" encoding="UTF-8" standalone="no"?>
<svg
   xmlns:dc="http://purl.org/dc/elements/1.1/"
   xmlns:cc="http://creativecommons.org/ns#"
   xmlns:rdf="http://www.w3.org/1999/02/22-rdf-syntax-ns#"
   xmlns:svg="http://www.w3.org/2000/svg"
   xmlns="http://www.w3.org/2000/svg"
   xmlns:sodipodi="http://sodipodi.sourceforge.net/DTD/sodipodi-0.dtd"
   xmlns:inkscape="http://www.inkscape.org/namespaces/inkscape"
   sodipodi:docname="a.svg"
   inkscape:version="1.0 (4035a4fb49, 2020-05-01)"
   id="svg870"
   version="1.1"
   viewBox="0 0 9.1622753 11.942529"
   height="11.942529mm"
   width="9.1622753mm">
  <defs
     id="defs864" />
  <sodipodi:namedview
     inkscape:window-maximized="1"
     inkscape:window-y="-9"
     inkscape:window-x="-9"
     inkscape:window-height="1721"
     inkscape:window-width="3200"
     fit-margin-bottom="0"
     fit-margin-right="0"
     fit-margin-left="0"
     fit-margin-top="0"
     showgrid="false"
     inkscape:document-rotation="0"
     inkscape:current-layer="layer1"
     inkscape:document-units="mm"
     inkscape:cy="17.021013"
     inkscape:cx="42.240488"
     inkscape:zoom="7.9195959"
     inkscape:pageshadow="2"
     inkscape:pageopacity="0.0"
     borderopacity="1.0"
     bordercolor="#666666"
     pagecolor="#ffffff"
     id="base" />
  <metadata
     id="metadata867">
    <rdf:RDF>
      <cc:Work
         rdf:about="">
        <dc:format>image/svg+xml</dc:format>
        <dc:type
           rdf:resource="http://purl.org/dc/dcmitype/StillImage" />
        <dc:title></dc:title>
      </cc:Work>
    </rdf:RDF>
  </metadata>
  <g
     transform="translate(-148.121, -143.707)"
     id="layer1"
     inkscape:groupmode="layer"
     inkscape:label="Layer 1">
    <path
       id="path12970-7"
       style="font-style:italic;font-variant:normal;font-weight:bold;font-stretch:normal;font-size:21.1667px;line-height:1.25;font-family:jolana;-inkscape-font-specification:'jolana Bold Italic';text-align:center;letter-spacing:0.196095px;word-spacing:0px;text-anchor:middle;white-space:pre;display:inline;fill:none;stroke:#000000;stroke-width:0.1;stroke-linejoin:round;stroke-miterlimit:4;stroke-dasharray:none"
       d="m 155.50069,144.22936 c -0.2737,-0.0319 -0.56881,-0.0274 -0.84766,0.004 -0.005,7.4e-4 -0.0104,0.001 -0.0156,0.002 l -4.73047,0.38282 c -0.0137,5.6e-4 -0.0273,5.6e-4 -0.041,0 0,0 -0.0601,0.001 -0.13476,0.0137 -0.0746,0.0124 -0.13693,0.0657 -0.0742,0.006 0.056,-0.0534 0.007,-0.003 -0.0117,0.0527 -0.0179,0.054 -0.0268,0.0927 -0.0273,0.0957 -2e-5,1.2e-4 0,0.004 0,0.004 l -0.16796,1.59368 4.375,-0.36328 c 0.002,-1e-5 0.004,-1e-5 0.006,0 0.23686,-0.0169 0.53296,0.0353 0.73436,0.26172 0.20141,0.22642 0.22023,0.50894 0.18947,0.74414 l -0.64719,5.31163 c -5.3e-4,0.003 -10e-4,0.007 -0.002,0.01 -0.0285,0.2181 -0.0954,0.44754 -0.26366,0.64062 -0.16827,0.19308 -0.43312,0.30623 -0.68359,0.32422 l -1.57284,0.14718 c -0.22397,0.0179 -0.51916,-0.0127 -0.72852,-0.2461 -0.20933,-0.23338 -0.20895,-0.51065 -0.17967,-0.73437 0.10144,-0.74473 0.0814,-0.63103 0.31719,-2.21365 0.0912,-0.77088 0.74739,-0.66283 1.35092,-0.72887 0.0461,-0.41452 0.14528,-1.00053 0.19197,-1.42504 -0.93753,0.0765 -1.56385,0.1398 -2.38452,0.21096 -0.35933,0.0314 -0.55976,0.13877 -0.71289,0.3086 -0.15316,0.16983 -0.32013,0.59471 -0.3681,1.00073 l -0.41853,3.83569 v 0.002 c -0.0508,0.42992 -0.0314,0.89482 0.1211,1.17969 0.15176,0.28348 0.39225,0.49622 1.1582,0.5 l 4.91015,-0.42972 c 0.003,-6.9e-4 0.005,-0.001 0.008,-0.002 0.36952,-0.0264 0.59188,-0.12846 0.75,-0.28516 0.15813,-0.1567 0.27545,-0.39864 0.32227,-0.79492 l 0.84179,-7.6914 v -0.004 c 0.0903,-0.9424 -0.16514,-1.27967 -0.54687,-1.50195 -0.19123,-0.11135 -0.4431,-0.17908 -0.7168,-0.21094 z"
       sodipodi:nodetypes="ccccccccsccccscccsccscccccscccscccscccscc" />
  </g>
</svg>
